<svg xmlns="http://www.w3.org/2000/svg" width="256" height="256" viewBox="0 0 256 256">
  <defs>
    <linearGradient id="bg" x1="0" y1="0" x2="1" y2="1">
      <stop offset="0%" stop-color="#102127" />
      <stop offset="100%" stop-color="#23525d" />
    </linearGradient>
    <linearGradient id="book" x1="0" y1="0" x2="1" y2="1">
      <stop offset="0%" stop-color="#f7f1e3" />
      <stop offset="100%" stop-color="#d8c7a4" />
    </linearGradient>
    <linearGradient id="panel" x1="0" y1="0" x2="1" y2="1">
      <stop offset="0%" stop-color="#e1a84a" />
      <stop offset="100%" stop-color="#c97a1d" />
    </linearGradient>
  </defs>
  <rect width="256" height="256" rx="56" fill="url(#bg)" />
  <path d="M54 72c0-14 11-26 25-26h44c19 0 37 6 51 17v119c-14-11-32-17-51-17H79c-14 0-25 12-25 26z" fill="url(#book)" />
  <path d="M202 72c0-14-11-26-25-26h-44c-19 0-37 6-51 17v119c14-11 32-17 51-17h44c14 0 25 12 25 26z" fill="#efe4ca" />
  <path d="M128 63v119" stroke="#b89a67" stroke-width="5" stroke-linecap="round" />
  <path d="M76 96h34M76 114h46M76 132h30" stroke="#bea67a" stroke-width="6" stroke-linecap="round" />
  <rect x="146" y="132" width="72" height="58" rx="14" fill="url(#panel)" />
  <rect x="154" y="142" width="56" height="10" rx="5" fill="#fff0d2" opacity="0.9" />
  <rect x="154" y="160" width="24" height="20" rx="6" fill="#fff0d2" opacity="0.9" />
  <rect x="184" y="160" width="26" height="8" rx="4" fill="#fff0d2" opacity="0.9" />
  <rect x="184" y="172" width="18" height="8" rx="4" fill="#fff0d2" opacity="0.75" />
</svg>
